<svg xmlns="http://www.w3.org/2000/svg" width="900" height="600"><path d="M0 0h900v600H0z" style="fill:#ff0;fill-opacity:1;fill-rule:evenodd;stroke:none;stroke-width:1px;stroke-linecap:butt;stroke-linejoin:miter;stroke-opacity:1"/><path d="M0 400h900v200H0z" style="fill:#e00000;fill-opacity:1;fill-rule:evenodd;stroke:none;stroke-width:1px;stroke-linecap:butt;stroke-linejoin:miter;stroke-opacity:1"/><path d="M0 0h900v200H0z" style="fill:#0cf;fill-opacity:1;fill-rule:evenodd;stroke:none;stroke-width:1px;stroke-linecap:butt;stroke-linejoin:miter;stroke-opacity:1"/><path d="m414.937 385 13.458-43.988-35.895-26.763 44.037-.165L449.707 270l13.758 43.886 44.035-.483-35.534 27.289 14.045 43.785-35.72-27.02z" style="opacity:1;fill:#fff;fill-opacity:1;fill-rule:evenodd;stroke:none;stroke-width:7;stroke-linecap:round;stroke-linejoin:round;stroke-miterlimit:4;stroke-dasharray:none;stroke-opacity:1"/><path d="M599.832 287.064a150.492 150.492 0 1 1-.01-.115" style="fill:#ff0;fill-opacity:1;fill-rule:evenodd;stroke:#930;stroke-width:12;stroke-linecap:round;stroke-linejoin:round;stroke-miterlimit:4;stroke-dasharray:none;stroke-opacity:1"/><g style="overflow:visible;stroke:none"><path d="M530.874 460H.866L265.87 1z" style="fill:#007800;fill-opacity:1;stroke:none" transform="matrix(.47736 0 0 .47942 323.085 154.679)"/></g><path fill="gray" d="m450 239.28 32 100-85-62h106l-85 62" style="fill:#fff"/></svg>