<svg xmlns="http://www.w3.org/2000/svg" xmlns:xlink="http://www.w3.org/1999/xlink" width="1200" height="600"><defs><clipPath id="d"><use xlink:href="#a" width="100%" height="100%" overflow="visible" style="overflow:visible"/></clipPath><path id="a" d="M301.8 162.2c5.6-1.7 12.6 4.5 15.5 14s.9 18.5-4.7 20.2c-5.6 1.8-12.5-4.4-15.5-13.9s-.9-18.5 4.7-20.3"/></defs><clipPath id="c"><path d="M0 0v150h700v150H600zm0 300v50h300V0h300z"/></clipPath><path fill="#012169" d="M0 0h1200v600H0z"/><path stroke="#fff" stroke-width="60" d="m0 0 600 300m0-300L0 300"/><path stroke="#c8102e" stroke-width="40" d="m0 0 600 300m0-300L0 300" clip-path="url(#c)"/><path stroke="#fff" stroke-width="100" d="M0 150h700M300 0v350"/><path stroke="#c8102e" stroke-width="60" d="M0 150h700M300 0v350"/><path d="M0 300h600V0h600v600H0z" style="stroke:none;fill:#c8102e;fill-opacity:1"/><g transform="translate(-186.1 213)scale(1.62285)"><circle cx="669.3" cy="53.6" r="86.3" style="fill:#fde88a;stroke:none;stroke-width:1.00032473"/><path d="M669.3-29.8c-35.5 0-65.8 22-77.9 53.2a31 31 0 0 1 7.3 2.1c9.7 3.8 18.7 10.7 29.7 9.3 12.8-2 23.1-9.6 34.9-14.1a46 46 0 0 1 38 3.8c2 1 4 1 6.1 2a72 72 0 0 0 43.8 11.2 83.5 83.5 0 0 0-82-67.5" style="fill:#fef1b9"/><path d="M669.3 89.3c-30.8 0-59.2-8.5-82.2-22.9a83 83 0 0 0 13.4 34H738a83 83 0 0 0 13.4-34 155 155 0 0 1-82.1 22.9" style="fill:#fddc50"/><path d="M164 134.4h43.2v.3H164z" style="fill:#f7941e" transform="rotate(244.8 363.2 -48)"/><path d="M194.3 153.9h-25.6s-3 18.2 9.8 38.5c5-3.7 15.8-14.4 15.8-38.5" style="fill:#f7941e" transform="translate(418.4 -99.7)"/><path d="M187 153.9c0 22.8-5.8 33.7-9 37.8l.5.7c5-3.7 15.8-14.4 15.8-38.5z" style="fill:#f8a440" transform="translate(418.4 -99.7)"/><path d="M165.3 132.8h46v.4h-46z" style="fill:#f7941e" transform="rotate(245.6 365.4 -51.6)"/><path d="M168.3 121h64v.4h-64z" style="fill:#f7941e" transform="rotate(-94.5 363.4 -122)"/><path d="M169.4 129.5h55.8v.4h-55.8z" style="fill:#f7941e" transform="rotate(236.7 379.6 -33)"/><path d="M173.6 121.2H237v.4h-63.4z" style="fill:#f7941e" transform="rotate(256.4 375.3 -93.2)"/><path d="M175.1 120h66.2v.4H175z" style="fill:#f7941e" transform="rotate(255.3 379 -91)"/><path d="M204.2 147.3h.4v17.9h-.4z" style="fill:#f7941e" transform="rotate(248.4 379.8 -35.7)"/><path d="M206.2 146.4h.3V171h-.3z" style="fill:#f7941e" transform="rotate(238.1 387.9 -7.4)"/><path d="M194.3 153.9c0 24.1-10.9 34.8-15.8 38.5l1 1.5s18.3-8.7 18.3-40z" style="fill:#f7941e" transform="translate(418.4 -99.7)"/><path d="m194.3 153.9 24.9-2.2-23.1 5.2z" style="fill:#f7941e" transform="translate(418.4 -99.7)"/><path d="M295.1 195.1s.3 2.4.8 3c0 0 2.1.1 3.1-.6s1.4-1.9 1.4-1.9L298 194zm-14.5-.6-2.1 1.2c-.3.2-1 .7-1.2.7 0 0-.1.9 1 .8q1.5 0 2.7-.2c1 0 1.8-.7 2.8-.4s2.3.3 2.5-.5 0-2 0-2zm20.7-56.7-.5-1c-1.3-2.1-.7-3.7-.7-3.7h-2.4v6.5s-.3 4.4 2.6 7.6v.3l.8-.3c-1.5-3.3-2.5-7 .2-9.4m-1.2 10.7q-.3 1.3-.3 2.7c0 1.6.5 6 .4 7.8 2-3 1.8-7.5-.1-10.5" style="fill:#c49a6c" transform="translate(418.4 -99.7)"/><path d="M265 149.7c-1.2.3-3.9 0-4.7.9-.7.7.8.4 1 .4l.9.2s-1 .7-1.4.7c-.5 0-2-.4-2.3-.1s-1.1 1.1.1 1.4c0 0-.4 1 1.3 1 0 0 .7 1.2 2 .9 1.2-.3 2.5-2.1 3.7-2.7q.9-.4 2.2-.7l-1.1-2.7z" style="fill:#e8ba8b" transform="translate(418.4 -99.7)"/><path d="m271.2 150.1-1-2.9-3.5 1.8 1.1 2.7 2.3-.5z" style="fill:#c49a6c" transform="translate(418.4 -99.7)"/><path d="M292.8 128.6c0 .7-.3 1.7.4 2.4 1 .4 1.7-.7 2.4-.3s-1 2 0 2a5 5 0 0 1 3.9 2l.4-1.2c.6-1.6-.6-2.2-1-2.7s-1.9-.2-1.9-.2.4-.2.4-.6c-.2-1.1-2-1.7-2-1.7s.3-.4-.4-.7-1.4-1.8-1.8-2.2-1.4-.4-1.4-.4l-8.1 5-.9.7c3.3 1.2 7.7.2 10-2" style="fill:#fff" transform="translate(418.4 -99.7)"/><path d="M294.5 138q1.7.2 3.3 1.6v-.4c.2-1 1-3 1.7-4.5a5 5 0 0 0-4-2c-1 0 .8-1.7 0-2-.6-.4-1.3.7-2.3.3-.7-.7-.4-1.7-.4-2.4a10 10 0 0 1-10 2l-1.5 1.8q-.9 2.4-1 4.8c3 4.8 9.6-.3 14.2.7m-16.9 23.5c2-1.7 2.4-7 2.8-10.4.2-2.8-1.8-5-2.4-7.6q-.9 1.1-1.4 1.4c-4.7.9-5.2 5.5-6.5 9v3l4.8-1c-.4 3.2.7 7.6 2.7 5.6" style="fill:#e6e7e8" transform="translate(418.4 -99.7)"/><path d="M298.9 152.5c-.2-2.6-1-3.1-1-3.1s.4-.3.6-1c.1-.8-.3-1.5-.4-2.5s-.6-1.1-.5-2.2q-.2-1.8-.4-2 .4-.6.6-2.1-1.6-1.4-3.3-1.7c-4.6-1-11.2 4-14.1-.7a6 6 0 0 0 1 3.1c-1.5.5-2.5 2-3.4 3 .6 2.7 2.6 5 2.4 7.7-.4 3.5-.7 8.7-2.8 10.4-2 2-3-2.4-2.7-5.5l-4.8.8v4.1s.3 2 .6 2.2c.4.2 1.1-.4 1.1-.4v15.2s2.5.6 2.3 2c-.2 1.5 1.5 5.6 1.4 6.6 0 1 .3 4.4 0 5.5s1.7 1.6 1.7 1.6c0 1.8 2.7 1.6 4.1 1.2 1.5-.5 2.7-.1 4.4.6l1.3.4c1.6-14.8-7.3-40.6 11.9-43.2" style="fill:#bcbec0" transform="translate(418.4 -99.7)"/><path d="M299.3 163.5a107 107 0 0 1-.4-11c-19.2 2.6-10.3 28.4-12 43.2q2 .7 4.3 0c2-.6 2.6.5 3.2.5s1.3-1.6 2.8-1.6c1.6 0 3.9 2 6.2 2s3.2-2 3.2-2c-3.1-3.6-7-29.6-7.3-31.1" style="fill:#d1d3d4" transform="translate(418.4 -99.7)"/><path d="M284.8 124.5s1.4 1.7 1.2 2.8q-.2 1.4-.3 1.2-.3-.4-2 1.5s2.6.2 3.6-.2 4.6-2.1 5.5-3.1c0 0-1.8-1.6-2.2-4.1l-3-4.7-1.3-.2z" style="fill:#e8ba8b" transform="translate(418.4 -99.7)"/><path d="M288.1 123q.4-.5.6-1.2c.2-.4.8-1.4 0-1.9 0 0-.3-1.3-1.4-1.5l-1-.2-1.5 6.3.4.5a7 7 0 0 0 2.4-2q0 .1.5 0" style="fill:#c49a6c" transform="translate(418.4 -99.7)"/><path d="M281.3 117.7s.3 1.8 0 2.3l-.6 1.4c0 .3.6.3 1 .3 0 0 .4.5.1.8 0 0 0 .6.4.4q-.1 0 0 .6s.6 0 .6.3c0 .4-.1 1.4 1 1.4 1 0 2.5-1.3 3.3-2.7q0 .1.5-.1.4-.5.4-1.1c.2-.4.5-1.4-.2-1.8 0 0-.4-1.2-1.4-1.3z" style="fill:#e8ba8b" transform="translate(418.4 -99.7)"/><path d="M286.7 117.8s.6 3.2 1.2 3.9 1.2 1.8 1.2 2.4c-.1.5-.7.5.1 1 1 .7 1.4-.2 1.7.3q.3.6.9 0 .6-.3.5-.8t-.8-1.6c-.7-.8-1.3-3-1.3-3z" style="fill:#603913" transform="translate(418.4 -99.7)"/><path d="M292 120h-1.8v-1.7h.6q1.2-3 .3-5c-1-2-3-2.6-3.1-2.6l.5-1.7c.1 0 2.9 1 4.1 3.6q1.4 3-.4 7z" style="fill:#fcd116" transform="translate(418.4 -99.7)"/><path d="m288.3 112.4.7-1.4s3.3 1.6 2.6 5.6z" style="fill:#c67f17" transform="translate(418.4 -99.7)"/><path d="M291.6 117.7v-.6a5 5 0 0 0-5-5 5 5 0 0 0-4.8 5v.6l4.6.5c2.5 0 2.4 4 5 4.8 0 0-.2-2.6.2-5.3" style="fill:#fcd116" transform="translate(418.4 -99.7)"/><path d="m282.3 114.8-2.6 2.8 6.6.6s-.6-2-4-3.4" style="fill:#c67f17" transform="translate(418.4 -99.7)"/><path d="M281.5 119.2c1.1.2 1.1 1 1.5 1 .3-.1.2-.7.2-.7l.5-.3v-.1q-1-.7-2.3-.6z" style="fill:#c49a6c" transform="translate(418.4 -99.7)"/><path d="M299.3 163.5c-.3-1.5-.4-7-.4-10.2 0-3.3-1-4-1-4h-.5l-.6-.1-1-.4-.9-.5-.8-1-2.2.3-1.4-.7-.7.1-.8-.1-1.2.8-.8-.1h-.2c-.4 2.4 1.2 5.6 3.6 7.2 1.7 1 3.4 2.8 3.8 4.5 3 10.7 1 27.8 11.3 33.2-2.9-7.3-6-27.7-6.2-29m-17.9-23.2c-1.8-2.5-1-5.2 0-7.9a12 12 0 0 0-1.7 4.3c-1 .3-1.2 2.6-1.2 2.6-1.4.4-1.4 2.4-1.4 2.4-1 1.7-3.1 2.8-3.1 2.8-2.2-.5-2.2 1.4-2.2 1.4-1.3-.2-1.7 1.3-1.7 1.3v6.7c1.1-3 1.6-6.8 4.6-8.4v8.4s1.7-8.3 3-10c.9-1.3 2-3 3.7-3.6" style="fill:#fff" transform="translate(418.4 -99.7)"/><path d="m295.8 148.7-.9-.7-.2-.1-.1-.2-.1-.2-.3-.5-1 .3h-1l-.7-.2-.2-.1-.2-.2-.2-.2-.2-.3-.4.2-.2.1h-.8q0-.3-.3-.4l-.4.6h-.1l-.1.2-.5.3h-.8l-.2-.2-.3.1v.1h-.1l-.3.2-.6.2-1.2.1q-.6 0-1.2-.2l-.5-.2-.5-.3q-.8-.9-.9-2.2 0-1.2.5-2.3-.7 1-.8 2.3 0 .8.2 1.4 0 .6.7 1.1a132 132 0 0 0-1.8 11.3q-.4 3-.6 6.1v6.3q.5 6.2 1.7 12.2l1.2 5.8.2 1.4-.2 1.4a5 5 0 0 1-1.6 2.3 5 5 0 0 0 1.7-2.2l.3-1.5-.1-1.4-1-6q-1-6-1.4-12l-.1-1.6v-4.6a131 131 0 0 1 1.7-17.5l.5.5.6.3 1.4.3a5 5 0 0 0 2-.4l.4-.1h1.4l.7-.5.1-.1.1-.1h1.2l.2-.1h.1l.1.1.2.2.3.1q.5.3 1 .3h1l.8-.3.1.2.1.1.2.2.3.2q.5.4 1 .6l2.2.5zm-19.3 16.2q-.2 0-.5-.2h-.2l-.3-.5-.3-.6-.2-.8v-7.6l-.1-4.8-.3-4.7-.3 4.7v4.9l.2 4.8v.2l.2 1.8q.2.9-.4 1.5h-.4l-.6-.5-1.6-.5v1.6l.3-.2.4-.2q.7-.1 1.2.4l.3.3q.4.4 1 .6.3 0 .4.2.3.8.2 1.5v1.3l-.1 3.6v3.6l.1 5.4v5.2l.4-2.6.2-2.6v-9l-.4-4.9v-.6l.1-.5q.3-.4.7-.4l.6-.1.4-.4-.5.2z" style="fill:#6d6e71" transform="translate(418.4 -99.7)"/><path d="m293.7 192.1-.1-1.1-.1-1.1-.2-1.1-.4-2.2q-1-4.5-2-9l-.5-2.3-.3-2.3-.5-4.5-.1-4.5v-4.3l-.4 4.3v4.5l.3 4.6q0 1.2.3 2.3l.5 2.3q1.1 4.6 2.2 9l.5 2.2.2 1 .2 1.1.1 1.1.2 1 .2 2.2v-2.1z" style="fill:#6d6e71" transform="translate(418.4 -99.7)"/><path d="M292.1 190.7c-2.7-11.4-6.2-22.4-2.7-33.8-9.4 8.6-2.8 23.1-4.9 34.8a10 10 0 0 1-1 2.8q1 .3 2.2.8c1.8.6 3.4 1.2 5.5.5q.6-.2 1.2-.2c0-1.7.3-3.3-.3-5" style="fill:#fff" transform="translate(418.4 -99.7)"/><g clip-path="url(#d)" transform="translate(418.4 -99.7)"><path d="m291.7 165.4 20.2-6.4 10.8 34.2-20.3 6.4z" style="fill:#012169"/><path d="m304.7 198.9 3.7-15.8 12 10.8 2.3-.7-1.2-3.8-12-10.8 3.7-15.8-1.2-3.8-2.3.7-3.7 15.8-12-10.8-2.3.7 1.2 3.8 12 10.8-3.7 15.8 1.2 3.8z" style="fill:#fff"/><path d="M307.2 179.3 312 159l-1.6.5-4.7 20.3zm1.5-.5-1.5.5 15.5 14-.8-2.6z" style="fill:#c8102e"/><path d="m307.2 179.3-4.8 20.3 1.6-.5 4.7-20.3zm-1.5.5 1.5-.5-15.5-13.9.8 2.6z" style="fill:#c8102e"/><path d="m298.4 163.3 6.8-2.2 4.5 14.3 6.7-2.1 1.8 5.7-6.7 2.1 4.5 14.3-6.8 2-4.5-14.2-6.7 2.2-1.8-5.7 6.7-2.2z" style="fill:#fff"/><path d="m299.8 162.9 4-1.3 4.9 15.4 8.1-2.6 1 3.4-8 2.6 4.8 15.4-4 1.3-4.9-15.4-8 2.5-1.2-3.4 8.1-2.6z" style="fill:#c8102e"/></g><path d="M304.1 162.8c-.4-.5-.1-1.2-1-1.8q-1.2-1.1-.7-3.7c.2-1.8 1.8-5.2 1.7-9.2 0-3.5-1.6-7.9-2.8-10.3-2.7 2.4-1.7 6-.2 9.4l-.8.3-.2 1c2 3 2 7.5 0 10.5v.7c-.4 1.3-.8 3.3-.7 4.1q.3 1 .7-.2.5-1 .7-1c.2 0 1.7 2.4 2 3.1s1 .5.5-.5l-1-2s1.6 1 1.8 1.3c.3.3.4-.4-.3-1l.6.1q0-.1-.3-.8" style="fill:#e8ba8b" transform="translate(418.4 -99.7)"/><path d="M311 103.5c.5-4.7-3.8-6.7-3.8-6.7l-10.4 9.5s3.8 2 4 6.8l10.2-8.5z" style="fill:#630b57" transform="matrix(.99989 0 0 .99908 418.4 -99.6)"/><path d="M315.2 113.6c-3-1.5-4.3-4.8-4.2-9l-10.3 8.5c.1 3.4 1.4 6.6 3.3 8a20 20 0 0 1 5.2 5.8l2-8.7 8.4.8c0-2.5-1.2-3.8-4.4-5.4" style="fill:#c8102e" transform="matrix(.99989 0 0 .99908 418.4 -99.6)"/><path d="m296.8 106.3 10.4-9.5.6 3.7-11.8 11z" style="fill:#f26522" transform="matrix(.99989 0 0 .99908 418.4 -99.6)"/><path d="M190.6 103.5c-.4-4.7 3.9-6.7 3.9-6.7l10.4 9.5s-3.8 2-4 6.8l-10.2-8.5z" style="fill:#630b57" transform="matrix(.99989 0 0 .99908 418.4 -99.6)"/><path d="M186.5 113.6c2.9-1.5 4.3-4.8 4.2-9l10.2 8.5c0 3.4-1.3 6.6-3.2 8a20 20 0 0 0-5.2 5.8l-2-8.7-8.4.8c0-2.5 1.2-3.8 4.4-5.4" style="fill:#c8102e" transform="matrix(.99989 0 0 .99908 418.4 -99.6)"/><path d="m205 106.3-10.5-9.5-.6 3.7 11.8 11z" style="fill:#f26522" transform="matrix(.99989 0 0 .99908 418.4 -99.6)"/><path d="M250.8 91.8c17.9 0 34 7.6 45.2 19.7l11.8-11a77.5 77.5 0 0 0-113.9 0l11.8 11a61 61 0 0 1 45.1-19.7" style="fill:#c8102e" transform="matrix(.99989 0 0 .99908 418.4 -99.6)"/><path d="m208.4 103.9-4.3-5.3-1.6 1.4L201 98l5-4.2 1.6 1.9-1.6 1.3 4.3 5.2zm6.1-4.7-4.7-7.9 5-3 1.3 2-3 1.9.4.8 3-1.8 1.3 2-3 1.8.5.9 3-1.9 1.3 2.1zm12.2-6.3-2.2-2.2-.7.3 1 2.7-2.2.9-3.5-8.5 4-1.6c1.6-.7 3.1.2 3.8 1.8.6 1.5.1 2.5-.3 3.1l2.6 2.5zm-2-5.7q-.5-.6-1-.3l-1.4.5.5 1.4 1.4-.6q.6-.3.4-1m12 2.7-1.8-2.6-.8.2.6 2.8-2.3.6-2.1-9 4-.9c1.9-.4 3.2.7 3.6 2.4q.3 2.3-.8 3l2.2 2.9zm-1.2-6q-.2-.6-1-.5l-1.3.4.3 1.4 1.4-.4q.7-.1.6-.8m12.3 4.4-.4-1-2.8.1-.2 1.1-2.7.2 2.2-9.3 3-.2 3.6 8.9zm-2.2-6.3-.6 3 1.6-.1zm18.2 7.5-2-5.1-.9 4.6-2.3-.4 1.5-9 2.5.4 2 4.7.7-4.3 2.3.4-1.6 9zm7-3.2c.9-2.6 3.3-3.8 5.6-3s3.4 3.3 2.4 6-3.4 3.8-5.6 3c-2.3-.9-3.4-3.3-2.5-6m5.8 2.1q.7-2-1-2.8-1.6-.5-2.5 1.5c-1 2-.1 2.5 1 2.8q1.7.5 2.5-1.5m5.2 7.4 2-9.4 2.3 1.3-1.5 6.3 4.5-4.6 2.4 1.3-7 6.6zm11.2 7.5.4-1-2.2-1.8-.9.7-2.1-1.7 8-5.4 2.3 1.9-3.4 9zm2.6-6.1L293 99l1.2 1z" style="fill:#fcd116" transform="matrix(.99989 0 0 .99908 418.4 -99.6)"/><path d="m622 107.2 1.6 1.4.4-.6q.6-.6 1-1.2l.9.8-1 1.1-2 2.4-.8 1-1-.7 1-1 .8-1-1.7-1.4-.8 1-.8 1-.9-.7.8-1 2-2.4q.8-.8 1-1.2l.9.8-1 1.1zm4 7.8.3-.7.3-.6-1.2-.8-.7.4-.6.4-1-.7 1.3-.7 4.4-2.6 1.4 1 1 .6-.7.9q-.2-.2-.8-.6l-.7-.5-.6 1.4.6.4.8.6-.6.8-.7-.5-.6-.4-.6 1.3.6.4.9.5-.6 1-.9-.7zm.3-2.7.8.5.7-1.5zm6.4 5.7q.6.3 1.3.2l-.7 1.2-1.2-.5c-1.4-.8-1.7-2.5-.9-4 .9-1.5 2.6-2.1 4-1.3l1 .8-.7 1.2q-.2-.7-.8-1c-.9-.5-2-.1-2.5.8q-.9 1.7.5 2.6m5.6.3q.8.6.4 1.5t-1.3.6q-.8-.5-.4-1.5.4-.8 1.3-.6m7.2.1 1.2.4-.4 1-1.2-.4-.3-.1-.4 1-.8 2-.5 1.6-1-.4.5-1.5.8-2 .4-1.1-.4-.2-1.2-.4.4-1 1.2.5zm3.2 5.6-.4 1.5-1.1-.3.5-1.5.8-2.7.4-1.5 1 .3-.4 1.5zm3 .8.6-2.5.3-1.7 1.5.3q1.6.5 1.3 1.7-.2 1-.9 1 .8.5.6 1.7-.4 1.7-2.2 1.4l-1.6-.3zm1.7-.8h-.4l-.4 1.6h.4q.9.3 1-.5.3-1-.6-1m-.2-1h.4q.5.1.7-.5t-.5-.9h-.3zm5.7 3-.2 1.6-1.1-.1.3-1.6.4-2.8.2-1.5 1 .1-.2 1.6zm4.3-1.2q.9.1.8 1.2t-1 1.1-1-1.2q.2-1 1.2-1m3.9 3.4v-5.9h1.7c1.4 0 2.6 1.3 2.6 3s-1.1 3-2.5 3zm1-1h.7q1.3-.2 1.5-2c0-1-.7-1.9-1.6-1.9h-.5zm8.2-5.4c1.5-.2 2.9 1.1 3 2.8s-.8 3.2-2.4 3.3c-1.5.2-2.8-1-3-2.8-.1-1.7.9-3.1 2.4-3.3m.5 5c1 0 1.6-1 1.4-2.1 0-1.1-.9-2-1.8-1.8-.9 0-1.5 1-1.4 2.1s1 2 1.8 1.9m6.9 0-1.1.2-.2-1.3-.7-3q-.1-.8-.4-1.7h.3l.9.7 2.8 2.2-.4-2-.4-1.4 1.1-.2.3 1.5.6 3 .3 1.4h-.2l-.8-.6-2.9-2.3.5 2.2q0 .8.3 1.2m9.4-2.4-.5-.7-.4-.5-1.7.5v1.5l-1.1.3.1-1.4.3-5 .3-.2 3.3 4 1 1zm-2.5-3.3v1.6l1-.4zm6-1.5q.7-.3 1.3.7.3 1-.5 1.4t-1.3-.7q-.3-1 .4-1.4m4.5 0-1.3-2.6-.7-1.4 1.4-.7 1.1-.6.5 1-1.1.5-.5.2.7 1.4.4-.2 1-.5.5 1-1 .4-.4.2.3.7.7 1.4-1 .5zm4.2-6 .6 1 .4-.2 1-.6.6 1-1 .5-.4.2.8 1.4.4-.3 1.1-.7.6 1-1.1.6-1.4.8-.8-1.3-1.5-2.5-.8-1.3 1.4-.8 1-.7.6 1-1.1.6zm6.6-.3.9 1.2-1 .7-.8-1.3-1.7-2.3-1-1.2 1.3-1q1.6-.9 2.6.5.8 1.1.2 1.9 1.5.6 2.9 1l-1.2.8-2.4-1.1-.3.2zm-1-1.3.3-.3q.6-.4.2-1.1-.5-.7-1.2-.3l-.3.2zm4-6.9c1.3-1 3-.7 4.2.5 1 1.3 1.1 3.1 0 4.1s-3 .8-4.1-.5-1.2-3 0-4.1m3.4 3.8q1-1-.2-2.6-1.2-1.2-2.5-.4-1 1 0 2.6c1 1.6 2 1 2.7.4"/><path d="M221.8 192.6s.6 1.7 1.5 1.6 2.9.6 3 1c0 .3-.4 1.3-2.3 1.3-1.8.1-2.7-1.3-4.6-1.2-2 0-1.3-1.6-1.3-1.6z" style="fill:#c49a6c" transform="translate(418.4 -99.7)"/><path d="M202.4 192.6s-1-2.7-2.7-2c-1.8.5-1.5 3.7-1.9 4.1s-2.4.3-2.7 1-1.2 1.7-.7 2q.7.3 2.2-.5c.8-.4 3-1 3.7-.4.6.6 2.1-4.2 2.1-4.2" style="fill:#e8ba8b" transform="translate(418.4 -99.7)"/><path d="M214.1 192.4q-4.8.6-9.3-1l-2.3.5q5.4 3.4 11.6.5m-9.3-10.3q-2.4 0-4.7.8 0 .5.2 2.1 1.5-2.4 4.5-3m-4.5-1.3c3.1 1 3.8-1.7 6.2-2.4-2.8-1-3.4 2-6.2 2.4" style="fill:#002b7f" transform="translate(418.4 -99.7)"/><path d="M211.3 184.1c3.1 3.1 4.2 7.3 5.9 11.4q.3.5 1 .6 1.1-.9 1.2-2.6l.4-.1c-2-3.6-3.3-9.6-8.5-9.3" style="fill:#4080bb" transform="translate(418.4 -99.7)"/><path d="M216.2 172.7s2.8 1.7 4.9 1.3a23 23 0 0 0 5.2-2.3v-4l-.8-.1c-.8.7-.8 2.2-2 2.7-.4 0 0-1-.8-1-.7 0-.3 1-1 1q-.2-1.4-1.4-1.3c-3.2.3-6.7-1.2-8-3.9l-7.2-3s-3 3-5.4 6.2c-.8 2.1-1.1 4.3.2 6.5h1.4c-1 .7-2 1-2.4 2.4-.5 2 .9 3 2.5 3.2 2-.9 2.8-3 5.1-2.1-1.7.5-2.5 2-4 2.5l-1.2 1.7q1.8-.3 3.5-.4-3 .4-4.5 3a8 8 0 0 0 4.8 6.3h-.3q4.5 1.5 9.3 1-6.1 2.9-11.6-.5h-.2s-1.6 4-2.4 5.2 1.5 1 3 .5c1.6-.4 5.7-.3 7.8 0 1.7 0 5.6.4 7.6-1.4q-.9-.2-1-.7c-1.8-4.1-2.9-8.3-6-11.4 5.2-.3 6.4 5.7 8.5 9.3l2.4-.8s-1.9-3.9-1.9-4.7c0-.7 3.5-8.3 1-11.9-1.4-2-7.3-.1-7.3-.1s2.2-2 2.2-3.2" style="fill:#0055a4" transform="translate(418.4 -99.7)"/><path d="m200.3 180.7 1.1-.3c-1.6-.2-3-1.3-2.5-3.2.4-1.3 1.4-1.7 2.4-2.4H200c-1.3-2.2-1-4.4-.2-6.5-1.3 2-2.3 4-2.2 5.6 0 2 .7 1 .7 1s-1.4 2.6-1.4 3.5c.1 1 1.4.5 1.4.5s-1.4 3 2 3.8v.2l1.1-.4 1.2-1.7q-.9.3-2.2-.1m22.8-12.3s-2.5-.2-3.1.1c0 0-2.5-.7-3.2-1.4l-4.5-2c1.3 2.7 4.8 4.2 8 3.9q1.2-.1 1.4 1.3c.7 0 .3-1 1-1s.4 1 .7 1c1.3-.5 1.3-2 2-2.7q-1.2-.2-2.3.8" style="fill:#4080bb" transform="translate(418.4 -99.7)"/><path d="M217.6 178.3c-1 3.4-4.2 4.1-6.6 5.8 4 1.7 6.6 5.6 8.5 9.4l.8-.3c-2.1-4.7-3.7-9.7-2.7-15m3-5.8c-1.7-.3-2.4-2.8-4.4-1.7q-.4.6-.7 1.7c.3-.7-.4-1.4-.7-1.7-1.7-.4-5.2-1.4-4.2 1.4.4 1.7 2 2.7 3.8 3.4.6-.6 1.8-1.9 1.8-2.8 0 0 2.8 1.7 4.9 1.3 2-.5 5.2-2.3 5.2-2.3V170c-2.2.3-3.5 3.1-5.6 2.5" style="fill:#002b7f" transform="translate(418.4 -99.7)"/><path d="M198.7 165.7c0 1.4 9.7-1.2 13.5 5.5.6 1.6 2.2 0 2.4-1s1-2.9 1.8-3.3c0 0 1-1-1.7-3s-9-4.5-12.2-.6c0 0-3.8.2-3.8 2.4" style="fill:#fff" transform="translate(418.4 -99.7)"/><path d="M205.9 163.1s5.9 1 7.3 5.5c1-3.5-1-5.8-.6-7 0 0 1-.1 1.8-1 0 0 1.8.4 1.3-1.9 0 0 .6-.7.5-1.6 0 0 .8-.5.8-.7s-1.9-1.7-1.9-2.4l-.1-2s-2.1-1.8-3 0c-1 2-6.1 6.2-6.1 6.2s1.2 2.1 0 4.9" style="fill:#e8ba8b" transform="translate(418.4 -99.7)"/><path d="M208.6 176.9c-3.3-.6-5-3.9-7-6.7-.4 2.5 3.8 7.2 7.6 8.8 3.9 1.7 7.7 3.5 8.7 3.7s5.7.4 6.3.3l.4-.7q-2.4-.2-4.3-.6c-4.1-1.7-6.9-4.1-11.7-4.8" style="fill:#002b7f" transform="translate(418.4 -99.7)"/><path d="M221.7 177.8q-3 .6-5.9.8c.4-.7.7-1.7 0-2.4-3.4-1.6-4.9-4.6-6.2-7.7-2-.8-7.1-2.3-8 1.4v.3c2 2.8 3.7 6 7 6.7 4.8.7 7.6 3.1 11.7 4.8q1.8.4 4.3.6c.4-1.3.7-4 .7-4z" style="fill:#0055a4" transform="translate(418.4 -99.7)"/><path d="M215.8 176.2c.7.7.4 1.7 0 2.4q3-.2 5.9-.8l-1-.1-6.6-4.2c-.5-.2-2.3-4.1-4.1-4.9l-.4-.1c1.3 3.1 2.8 6.1 6.2 7.7" style="fill:#4080bb" transform="translate(418.4 -99.7)"/><path d="M204.9 156.2q0 .1.2.3c.4.7-.2 1.6-.2 1.6s-.9 1.5 1.5 1.5c0 0 2.4-1.6 4-.3 0 0 .1-.9-.4-1.3l1.3-1.7c.5-.6-.5-1.6 0-2.3q.2-.1.2-.3c-2.5 1-4.4 3.6-6.6 2.5" style="fill:#754c29" transform="translate(418.4 -99.7)"/><path d="M211.5 150.8s-2-.4-2.3 0c0 0-1.7-.1-2.7.8s-1.8 2.1-1.3 3.4c0 0-.4.6-.3 1.2 2.2 1 4.1-1.6 6.6-2.5.3-.5 0-1 .2-1.3q.3-.5 1.3-.2c.7.2 2-.1 2-.1s-1.8-2.6-3.5-1.3" style="fill:#8b5e3c" transform="translate(418.4 -99.7)"/><path d="M211.8 155.2s.9-.2 1.2-.6q.6-.7 1.2-.3s-.2.6-1 .8l.2.2s1.4-.5 1.2-1.2q-.5-1-1.4-.5c-.5.3-.4 1-1.4 1.6m4 3.5.3-.8c-.4 0-1.1-.1-1.3.5zm-4 2s.1.7.8 1q.1 0 1-.5-1 0-1.8-.4" style="fill:#c49a6c" transform="translate(418.4 -99.7)"/><g transform="translate(418.4 -99.7)"><path d="M223.4 150c5.7 4.8 12.7 8.2 15.6 14.9l-2.7-8.8-.7-1.4c-5.4-4-10.4-9.4-12.8-15.6l-.9 3.4s-.6 1.8-.7 4.5a10 10 0 0 0 2.2 3" style="fill:#d94040"/><path d="M223.4 150q-1.5-1.4-2.2-3c-.3 3.8.4 9.3 5.1 13.7l-.3 3.4q1.7-1 3.3-.3a16 16 0 0 0 9.8 1.4l-.1-.3c-3-6.7-9.9-10.1-15.6-15" style="fill:#c8102e"/><path d="m235.6 154.7-6-12.2-1-7.9h-4.7l-1 4.5a38 38 0 0 0 12.7 15.6" style="fill:#b20808"/><path d="M240.4 185.8q1.5 4.4.6 9.4c-.3.3-1.4.7-1.7.3-3.8-3.8-1.4-10-5.2-13.4a5 5 0 0 0-.3 3.8c1 3.8 3 7.9.7 11.3-.4.4-1.8.4-2.1-.3-2.7-6.2-1.8-15.9-7.5-19.9-1 .7-4.8 4.3 1 13 0 0-1 3.8-.8 4.2s1.8 1.6 1.8 1.6-.4 1.2-.3 2.2l2 .3c5.6.6 10.9-1.6 16.4-1l-.2-4.7q-3-2.8-4.4-6.8" style="fill:#c8102e"/><path d="M245 197.3c-5.5-.6-10.8 1.6-16.4 1l-2-.3q0 1.1.9 1.6l1.2.9a30 30 0 0 1 16.6-.4q0-.9-.2-1.8z" style="fill:#d94040"/><path d="M228.7 200.5c1 .9 2 1.9 3.2 1.7 1.8-.4 3.2-1.3 6.4 0 2.8 1 6.7.8 7-2.2a30 30 0 0 0-16.6.5" style="fill:#c8102e"/><path d="M232.4 196.9c.3.7 1.7.7 2 .3 2.5-3.4.4-7.5-.6-11.3q-.7-2 .3-3.8c3.8 3.4 1.4 9.6 5.2 13.4.3.4 1.4 0 1.7-.3 1.7-8.3-3.4-14.9-5.5-22.4-.6-3-.4-5.7 4.4-5l-.8-2.6c-3.2.8-7-.1-9.8-1.4q-1.6-.7-3.3.3c-.1 2-.1 4.6.3 6.8 0 0-2 2.5-1.2 6l-.2.1c5.7 4 4.8 13.7 7.5 19.9" style="fill:#b20808"/><path d="M220.3 142q0-1-.4-2v.2l-1 .6a3 3 0 0 1 1.4 1.3" style="fill:#c49a6c"/><path d="M239.6 156.9c.7.3 1.4-.4 1.8-.4 2.7-1.3 2.4-4.8.6-7.2.7 0 1.4-.7 1.4-1 0-5.8-2.6-14.2 3.5-16.2q.3-.7.7-1l-4.1-2.2-13.6-.9-4.8 1.4s-2 2.6-2 4.6c0 0-3.2 2.7-3.2 6q.4 1 .4 2a3 3 0 0 0-1.4-1.2l-7 4.5c-1.6 1.3-3.3.5-4 .7l-4.5 2.2s1.8 2 3.3 1.2c0 0 1.6.7 3.1-.2a15 15 0 0 1 4.4-1.8c1 0 7.4-2.8 8.4-3s3.2-3 3.1-5.3c0 0 1.2-1.4 1.4-3.3 0 0 .6 1 .8 2.8l-.4 8.6.2 1 1.2 1.1c5.6 5 9.5 12 7.5 18.9.3 1.3 2.4 8.9 4.1 11.2q2 .6 3.6.6 1.4-.4 2.1-2l-.2-6.9a18 18 0 0 1-3-5.6 64 64 0 0 0-3.4-8.6" style="fill:#e8ba8b"/><path d="M247 132c-6.2 2.1-3.6 10.5-3.6 16.3 0 .3-.7 1-1.4 1 1.8 2.4 2.1 5.9-.6 7.2-.4 0-1 .7-1.8.4q2 4 3.5 8.6.8 3.1 2.9 5.6c-.2-5.2-.4-11-1.2-13.9-1.2-4.4.3-20.9 2.1-25.1m-.7 57.3c0-1.8.8-5.5.2-9.1l-.2-2.3q-.6 1.6-2 2-1.6 0-3.7-.6s1 6.5 3 9.6c0 0-.3 1.2-.2 2.1q.4-1 1.2-1.8 1-.4 1.7.1" style="fill:#c49a6c"/><path d="M246.2 190.2v-.8q-.8-.5-1.7 0t-1.2 1.7q0 .4.2.7c.5.7 0 5.7 0 5.7s.2 2 5.7-.4c0 0-2.8-5.5-3-7" style="fill:#e8ba8b"/><path d="M244.3 128c-5.4 2.1-11.4 3.7-15-1.5-3 0-4.2 2.9-4.2 2.9 6.8-.5 11.3 2.2 11.3 2.2 5.7-2.1 11.2-.4 11.2-.4a5 5 0 0 0-3.3-3.3" style="fill:#c8102e"/><path d="m244.3 128-1.3-.4c-.7-1.1-.9-1.4-2.7-1.4s-3.6-.3-6.3-.8a4 4 0 0 0-4.2 1.2h-.5c3.6 5.1 9.6 3.5 15 1.3" style="fill:#d94040"/><path d="M240.5 124.5c.2-1.3-.8-2.2-.8-2.2l-4.3-2-1.5 1.3v1.6q3 1.6 6.6 2.2z" style="fill:#c49a6c"/><path d="M240.5 115.4s-5.4-.3-9 2.7c0 0 .4 2.1 2.3 3.6 0 0 0 .4-1 .5 0 0 .4.7 1 .8l4.3-3.8z" style="fill:#fcd116"/><path d="M233.8 123.2q0 1.5-1 2.6l3 4.1 5.2-3s-.4-.6-.5-1.5a20 20 0 0 1-6.7-2.2m9.5-7.3s-.2 2.6 1 3.3c0 0 .1.8-.8 1v1.4q-.1.2-.5.4 0 .1-.3.5s.2.8 0 1.3-1.1 1-2 .8c-.9-.3-2.3-1-3-1.9 0 0-1.3-1.3-1.7-1.5s-2.3-1.8-1.5-2.7 2-.5 2-.5.6-1.8 1.7-2.1c1-.4 3.3-.8 5.1 0" style="fill:#e8ba8b"/><path d="m242.7 122.5.3-.4c.2 0 .5-.4.5-.4h-2s.2.6 1.2.8m-3-4.4s-.6-.5 1.1-1.2c0 0 1.2-.2 1.6.9 0 0 0 1-1.5.5l.6-.8s-.8-.8-1.5.7z" style="fill:#c49a6c"/><path d="M239.3 112s.3-3.6-3-3.6-5.6 1.6-5.6 1.6 5.6 2 8.6 2" style="fill:#bcbec0"/><path d="M243.3 115a6 6 0 0 0-6-4.8 6 6 0 0 0-6.2 6.2v.9a15 15 0 0 1 12.2-2.3" style="fill:#231f20"/><path d="M236.5 110.3a6 6 0 0 0-4 2.2q-.2 2 0 4a15 15 0 0 1 6.3-1.9q-.7-2.4-2.3-4.3" style="fill:#58595b"/><path d="M230.9 118.6a1 1 0 0 1-.9-.5 1 1 0 0 1 .3-1.4 16 16 0 0 1 9.6-3.2q2 0 4 .5a1 1 0 1 1-.5 2 15 15 0 0 0-3.5-.4q-4.7 0-8.4 2.8z" style="fill:#414042"/><path d="M236.4 112.6s.3-3.6-3-3.6-5.5 1.6-5.5 1.6 5.5 2 8.5 2" style="fill:#fff"/><path d="M244.5 172.8c1.7.3 1 2.7 2.4 3.4 1 .3 1.4-1.4 1.4-1.7a47 47 0 0 1-3.6-28.4l-1.2-1.4s-1.8 27-1.5 32l.1.2a5 5 0 0 0 2.4-4.1" style="fill:#b20808"/><path d="m244.8 146.3-.1-.2a47 47 0 0 0 3.6 28.4c0 .3-.4 2-1.4 1.7-1.4-.7-.7-3.1-2.4-3.4q-.1 3-2.4 4.1c.3.4 1 1 2.2 1 0 0 .4 3.9 2.3 3.5 0 0 .6-2.1 1.8-3.3 1-.9 1.3-3.5 1.4-5.4-4.3-8-5.5-17.4-5-26.4" style="fill:#c8102e"/><path d="M249.8 172.7q0-1-.2-1.7c-.3-1.4-4.3-9.5-3.7-23.3l-1.1-1.4c-.5 9 .7 18.4 5 26.4" style="fill:#d94040"/><path d="M227.9 136.5a4 4 0 0 0 2.2 1.2 3 3 0 0 0 2.4-.7h-2.3zm9.3 1a5 5 0 0 0 2.6.9q1.6 0 2.7-1-1.3.3-2.6.2zM231 136q.3 0 .3.3 0 .4-.3.3-.3 0-.4-.3 0-.4.4-.3" style="fill:#c49a6c"/><ellipse cx="239.9" cy="136.9" rx=".6" ry=".5" style="fill:#c49a6c"/><path d="M236 159.2c.6-1.3 1.6-3.1 2.2-3.8 0 0-1.6.8-3.4 1.1zm6.7-23.6v.6c.5 2 2.3 4.4 3.2 5.4 0-2.7-.7-6-3.2-6" style="fill:#c49a6c"/><path d="M249.7 144.3h.1c.8-10.3-3-13.7-3-13.7-3.3-.7-4.6 2.2-4.2 5 2.5 0 3.1 3.3 3.2 6l.6.6c-1.4.4-4.5 4-4.5 4l.7 1.9c1.6-2.2 4.3-3.2 7.1-3.8" style="fill:#e8ba8b"/><path d="M242.6 148c1.6-.2 3.4-.4 4.3-1 1.2-.7 2.5-2.2 2.8-2.6-2.8.5-5.5 1.5-7.1 3.7m0 0s-1.3.2-2 .6-4.3 2.5-5.8 1.6c0 0-1.5-1.3.2-2l3.2-1-.4-.5 4.1-.6z" style="fill:#c49a6c"/><path d="M238.5 142.6a4 4 0 0 0-.6 4l1-.4a3 3 0 0 1 .4-3l.2-.1-.8-.6zm13.3-5c1-2 1-4.2-.1-5.2l-.7.7c.7.7.7 2.5-.2 4.1l-1.1 1.7.7.7z" style="fill:#f7941e"/><path d="M242.2 146a4 4 0 0 1-4 .9l.4-1q1.5.5 2.9-.6l.1-.2.7.8z" style="fill:#f9af56"/><path d="m242.7 141.5 1-.3a5 5 0 0 1-1.4 4.7l-.7-.8q1.6-1.4 1-3.6" style="fill:#f7941e"/><path d="M246.4 132.6c2-1.2 4.2-1.3 5.3-.2l-.7.7c-.7-.7-2.5-.5-4 .4l-1.7 1.2-.7-.7z" style="fill:#f9af56"/><path d="M245.3 134.7a7 7 0 0 0-1.6 6.5l-1 .3c-.8-3.3.3-5.8 1.9-7.5z" style="fill:#f7941e"/><path d="M253.6 131.9 233 152.6l-.5-.5 19.6-21.6z" style="fill:#fcd116"/><path d="M249.7 138.9a7 7 0 0 1-6.4 2 5 5 0 0 0-4.6 1.6l.8.6a4 4 0 0 1 3.6-1.3c3.3.6 5.7-.5 7.3-2.2z" style="fill:#f9af56"/><path d="M239 146.1c-1.8.3-3 1.5-3 1.5h3l.3.1h-.2c-.6 0-1.4.6-1.4.6l-2.3 1.6c1.3.2 3.3-.5 4.7-1.2q1-.4 2.5-.6l-.7-2q-.5-.1-2.9 0" style="fill:#e8ba8b"/></g><path d="M669.3-30.6A84 84 0 0 0 585 53.6a84 84 0 0 0 84.2 84.2 84 84 0 0 0 84.2-84.2 84 84 0 0 0-84.2-84.2m0 2a82 82 0 0 1 82 82.2 82 82 0 0 1-82 82 82 82 0 0 1-82.2-82 82 82 0 0 1 82.2-82.2" style="fill:#f7941e;fill-opacity:1;stroke:none;stroke-width:.97631693"/></g></svg>